<svg width="26" height="26" viewBox="0 0 26 26" fill="none" xmlns="http://www.w3.org/2000/svg">
<path d="M9.52423 3.17578H12.6989V9.52503H9.52423C8.68227 9.52503 7.87479 9.19056 7.27944 8.5952C6.68408 7.99985 6.34961 7.19237 6.34961 6.35041C6.34961 5.50844 6.68408 4.70096 7.27944 4.10561C7.87479 3.51025 8.68227 3.17578 9.52423 3.17578Z" fill="#F4511E"/>
<path d="M15.8729 9.52503H12.6982V3.17578H15.8729C16.7148 3.17578 17.5223 3.51025 18.1177 4.10561C18.713 4.70096 19.0475 5.50844 19.0475 6.35041C19.0475 7.19237 18.713 7.99985 18.1177 8.5952C17.5223 9.19056 16.7148 9.52503 15.8729 9.52503Z" fill="#FF8A65"/>
<path d="M12.6986 12.6965C12.6986 14.4498 14.1199 15.8711 15.8732 15.8711C17.6265 15.8711 19.0479 14.4498 19.0479 12.6965C19.0479 10.9432 17.6265 9.52184 15.8732 9.52184C14.1199 9.52184 12.6986 10.9432 12.6986 12.6965Z" fill="#29B6F6"/>
<path d="M9.52423 9.52344H12.6989V15.8727H9.52423C8.68227 15.8727 7.87479 15.5382 7.27944 14.9429C6.68408 14.3475 6.34961 13.54 6.34961 12.6981C6.34961 11.8561 6.68408 11.0486 7.27944 10.4533C7.87479 9.85791 8.68227 9.52344 9.52423 9.52344Z" fill="#7C4DFF"/>
<path d="M9.52423 15.8711H12.6989V19.0457C12.6989 19.8877 12.3644 20.6952 11.769 21.2905C11.1737 21.8859 10.3662 22.2203 9.52423 22.2203C8.68227 22.2203 7.87479 21.8859 7.27944 21.2905C6.68408 20.6952 6.34961 19.8877 6.34961 19.0457C6.34961 18.2038 6.68408 17.3963 7.27944 16.8009C7.87479 16.2056 8.68227 15.8711 9.52423 15.8711Z" fill="#00E676"/>
</svg>
