<svg width="27" height="27" viewBox="0 0 27 27" fill="none" xmlns="http://www.w3.org/2000/svg">
<path d="M9.87762 3.28906H15.7229L9.6554 22.3682C9.59916 22.56 9.48317 22.7288 9.32432 22.85C9.16547 22.9712 8.97206 23.0386 8.77226 23.0423H4.22244C3.96831 23.0345 3.72765 22.9263 3.55328 22.7413C3.37891 22.5562 3.28508 22.3096 3.29239 22.0554C3.29284 21.9479 3.30949 21.8411 3.34177 21.7386L8.99613 3.96149C9.05257 3.77031 9.16844 3.60207 9.32694 3.48116C9.48543 3.36025 9.67831 3.29297 9.87762 3.28906Z" fill="#01579B"/>
<path d="M18.3702 16.4609H9.10262C8.98568 16.4642 8.87478 16.5136 8.79425 16.5985C8.71372 16.6833 8.67011 16.7967 8.67299 16.9136C8.67234 16.9759 8.68409 17.0376 8.70755 17.0952C8.73101 17.1529 8.7657 17.2053 8.80961 17.2494L14.7652 22.777C14.934 22.9471 15.1634 23.0433 15.4031 23.0445H20.6508L18.3702 16.4609Z" fill="#1976D2"/>
<path d="M17.3424 3.96067C17.2858 3.76977 17.17 3.6018 17.0117 3.48107C16.8534 3.36033 16.6608 3.29309 16.4617 3.28906H9.94727C10.1465 3.29269 10.3394 3.35965 10.498 3.48026C10.6567 3.60086 10.7728 3.76884 10.8296 3.95985L16.4823 21.7369C16.5634 21.9806 16.548 22.2461 16.4393 22.4788C16.3306 22.7115 16.1368 22.8937 15.8979 22.988C15.8023 23.0221 15.7015 23.0399 15.6 23.0406H22.1144C22.3685 23.0331 22.6093 22.925 22.7838 22.7402C22.9583 22.5553 23.0524 22.3088 23.0453 22.0546C23.0448 21.9471 23.0282 21.8403 22.9959 21.7377L17.3432 3.96149L17.3424 3.96067Z" fill="#29B6F6"/>
</svg>
