<svg width="27" height="27" viewBox="0 0 27 27" fill="none" xmlns="http://www.w3.org/2000/svg">
<g clip-path="url(#clip0_1047_2693)">
<path d="M13.1688 0C20.4408 0 26.3376 5.89685 26.3376 13.1688C26.3376 20.4408 20.4408 26.3376 13.1688 26.3376C5.89685 26.3376 0 20.446 0 13.1688C0 5.8916 5.89685 0 13.1688 0ZM11.4289 4.02472C9.80521 4.02997 8.33493 6.64253 7.07093 11.7832C6.1772 11.7726 5.35744 11.7568 4.59057 11.7462H4.47431C4.37904 11.7408 4.28388 11.7462 4.18861 11.7568C3.75496 11.836 3.44292 12.2169 3.44292 12.6558C3.44292 13.1054 3.77616 13.4914 4.2204 13.5602L4.23089 13.5708H6.65848C6.4367 14.5739 6.24096 15.5826 6.07144 16.5959L5.99737 17.0243V17.0454C5.99744 17.1468 6.02318 17.2465 6.07218 17.3353C6.12118 17.4241 6.19185 17.499 6.27761 17.5531C6.55797 17.7329 6.93348 17.6484 7.11332 17.368L7.12916 17.3839L8.31909 13.5708H14.052C14.4909 15.2314 14.9458 16.9396 15.5488 18.5474C15.8713 19.4095 16.6223 21.4192 17.8811 21.4298H17.8969C19.8431 21.4298 20.6048 18.2829 21.1071 16.1993C21.2183 15.7497 21.3081 15.3636 21.398 15.078L21.435 14.9617L21.4404 14.9445C21.4815 14.7959 21.3976 14.6371 21.2499 14.5862C21.0965 14.5333 20.9221 14.6126 20.8692 14.7713L20.8268 14.8875C20.6629 15.3477 20.5095 15.7761 20.3721 16.1622L20.3615 16.1939C19.5153 18.5791 19.1345 19.6686 18.3782 19.6686H18.3306C17.3628 19.6686 16.4583 15.7444 16.1145 14.2688C16.0564 14.015 16.0035 13.777 15.9506 13.5708H22.1913C22.3024 13.5708 22.4134 13.5443 22.5139 13.4914L22.5188 13.4874C22.5257 13.4831 22.5329 13.4791 22.5404 13.4756L22.5721 13.4544L22.5879 13.4438C22.6039 13.4332 22.6197 13.4226 22.6355 13.4068L22.6589 13.3874C22.7735 13.2877 22.8547 13.1486 22.8894 13.0048C22.9688 12.6293 22.7202 12.2591 22.3447 12.1852H22.3129C22.2759 12.1798 22.2442 12.1746 22.2071 12.1746L22.112 12.164C19.9066 12.0053 17.6377 11.9417 15.5064 11.8996L15.5011 11.8836C14.4699 7.99645 13.174 4.02472 11.4289 4.02472ZM11.3601 5.77524C11.45 5.77524 11.5346 5.82813 11.6086 5.92339C11.7885 6.20889 12.1057 6.84881 12.5765 8.26621C12.8991 9.23936 13.2481 10.4504 13.6183 11.8572C12.2116 11.8361 10.7942 11.8201 9.4191 11.8043L8.72105 11.7991C9.50912 8.72105 10.4663 6.38873 11.1696 5.83872C11.2279 5.80168 11.2913 5.77524 11.3601 5.77524Z" fill="#10069F"/>
</g>
<defs>
<clipPath id="clip0_1047_2693">
<rect width="26.3376" height="26.3376" fill="white"/>
</clipPath>
</defs>
</svg>
