<svg width="21" height="22" viewBox="0 0 21 22" fill="none" xmlns="http://www.w3.org/2000/svg">
<g clip-path="url(#clip0_1047_2664)">
<path d="M18.8799 11.5868L18.8936 11.5879L20.34 11.7406C20.4413 11.7516 20.5346 11.8015 20.6006 11.8799L20.6114 11.8932L20.5977 11.9002C20.6311 11.9428 20.6557 11.9918 20.6698 12.0443C20.684 12.0968 20.6875 12.1516 20.6801 12.2055C20.3641 14.7426 19.1734 17.0862 17.317 18.8251C15.3908 20.6294 12.8607 21.6319 10.2335 21.6318C8.95767 21.6339 7.69256 21.3966 6.50248 20.9322L6.43765 20.9067C6.38955 20.8888 6.34554 20.8612 6.30823 20.8257C6.27093 20.7901 6.2411 20.7474 6.22052 20.6999L6.2143 20.6847C6.17392 20.5897 6.17152 20.4826 6.20759 20.3859L6.77845 18.9792C6.81555 18.8839 6.88782 18.8068 6.98006 18.7642C7.0723 18.7215 7.17731 18.7167 7.273 18.7507L7.28617 18.7556C10.2041 19.8936 13.5089 19.2527 15.8021 17.1043C17.2617 15.7497 18.2028 13.9198 18.4609 11.9349C18.474 11.8365 18.5226 11.7466 18.5974 11.6822C18.6722 11.6179 18.7679 11.5837 18.8661 11.5863L18.8799 11.5868ZM3.51472 16.8371L3.53501 16.8369L3.55546 16.8371C4.21184 16.8447 4.74035 17.3807 4.74746 18.0412V18.0618L4.7473 18.0824C4.7359 18.7587 4.18388 19.2977 3.51424 19.2862C2.8446 19.2747 2.311 18.7171 2.32232 18.0408C2.33355 17.3783 2.86359 16.8477 3.51472 16.8371ZM0.398518 12.0077H12.226C12.3302 12.0086 12.43 12.0504 12.5043 12.1241C12.5786 12.1979 12.6217 12.2979 12.6244 12.4031L12.6245 12.4171V13.9124C12.6254 14.0177 12.5857 14.1191 12.514 14.1954C12.4422 14.2717 12.3439 14.3169 12.2398 14.3214L12.226 14.3218H0.398518C0.2943 14.3209 0.194504 14.2792 0.120163 14.2054C0.0458211 14.1316 0.00274039 14.0316 0 13.9264L0 12.4031C0.0027042 12.3003 0.043869 12.2025 0.115197 12.1292C0.186525 12.0559 0.282713 12.0126 0.384372 12.0081L0.398518 12.0077ZM13.7064 0.596846C13.7571 0.615279 13.8036 0.643823 13.8432 0.68078C13.8827 0.717736 13.9145 0.76235 13.9367 0.811967C13.9777 0.91312 13.9777 1.02651 13.9367 1.12767L13.4213 2.51546C13.387 2.61427 13.3153 2.69532 13.222 2.74083C13.1286 2.78635 13.0212 2.79261 12.9232 2.75825C11.5959 2.29048 10.1717 2.17596 8.78778 2.42571C7.40389 2.67547 6.10706 3.28108 5.0223 4.18417C3.64743 5.34647 2.67119 6.91766 2.23291 8.67353C2.21088 8.75975 2.16116 8.83616 2.09153 8.89079C2.02191 8.94542 1.93631 8.97518 1.84814 8.97543H1.75882L0.34355 8.63197C0.291359 8.61952 0.242216 8.59649 0.1991 8.56428C0.155983 8.53208 0.119791 8.49136 0.0927181 8.44461H0.0858471C0.0574955 8.39782 0.0389125 8.34568 0.0312393 8.29137C0.0235661 8.23707 0.0269645 8.18176 0.041226 8.12883C0.603358 5.88116 1.86099 3.8733 3.63112 2.39741C6.44573 0.0571272 10.2676 -0.625869 13.7064 0.596846ZM8.46774 6.59196H20.2953C20.3971 6.59277 20.4948 6.63258 20.5687 6.70336C20.6426 6.77413 20.6871 6.87058 20.6932 6.97322L20.6938 6.98743V8.48282C20.6947 8.58807 20.6551 8.68955 20.5833 8.76585C20.5115 8.84216 20.4132 8.88733 20.3091 8.89183L20.2953 8.89224H8.46782C8.36422 8.8905 8.26529 8.84841 8.19169 8.77475C8.11809 8.70109 8.07552 8.60155 8.07286 8.49694L8.0727 8.48282V7.0013C8.07177 6.89667 8.11091 6.79572 8.18193 6.71953C8.25295 6.64335 8.35037 6.59782 8.45384 6.59245L8.46774 6.59196ZM16.6784 2.0297L16.6987 2.02954L16.7192 2.0297C17.3756 2.03729 17.9041 2.57334 17.9112 3.23372V3.25438C17.9112 3.26134 17.9111 3.26823 17.911 3.27503C17.8997 3.95133 17.3476 4.49024 16.6779 4.47872C16.0083 4.4673 15.4747 3.9097 15.4861 3.23348C15.4973 2.57089 16.0272 2.04023 16.6784 2.0297Z" fill="#4FB58B"/>
</g>
<defs>
<clipPath id="clip0_1047_2664">
<rect width="20.7968" height="21.5279" fill="white"/>
</clipPath>
</defs>
</svg>
