<svg width="20" height="22" viewBox="0 0 20 22" fill="none" xmlns="http://www.w3.org/2000/svg">
<g clip-path="url(#clip0_1047_2667)">
<path d="M18.813 18.8869C18.8149 19.2671 18.7388 19.6435 18.5898 19.9909C18.4408 20.3384 18.2222 20.649 17.9486 20.9023C17.675 21.1555 17.3526 21.3456 17.0028 21.46C16.6529 21.5743 16.2837 21.6102 15.9194 21.5654C14.5934 21.362 13.6218 20.1659 13.6541 18.7768V2.8067C13.6221 1.41615 14.5961 0.219395 15.9238 0.0182099C16.2877 -0.0259671 16.6565 0.0104564 17.0059 0.125071C17.3552 0.239686 17.6771 0.429879 17.9502 0.683071C18.2233 0.936263 18.4414 1.24668 18.5902 1.5938C18.7389 1.94091 18.8149 2.3168 18.813 2.69662V18.8869Z" fill="#F9AB00"/>
<path d="M2.57946 16.2413C4.00407 16.2413 5.15891 17.4385 5.15891 18.9152C5.15891 20.392 4.00407 21.5891 2.57946 21.5891C1.15484 21.5891 0 20.392 0 18.9153C0 17.4386 1.15484 16.2413 2.57946 16.2413ZM9.36654 8.13696C7.93524 8.21832 6.82463 9.46291 6.85792 10.9485V18.1309C6.85792 20.0802 7.68531 21.2635 8.89755 21.5158C9.27338 21.5947 9.66146 21.586 10.0336 21.4902C10.4058 21.3944 10.7527 21.2139 11.0493 20.9619C11.3458 20.7098 11.5845 20.3925 11.748 20.0329C11.9115 19.6734 11.9958 19.2806 11.9947 18.8831V10.8247C11.9954 10.4685 11.9276 10.1157 11.7953 9.78689C11.663 9.4581 11.4688 9.15991 11.2242 8.90972C10.9795 8.65953 10.6893 8.46235 10.3703 8.32969C10.0514 8.19703 9.71016 8.13146 9.36654 8.13696Z" fill="#E37400"/>
</g>
<defs>
<clipPath id="clip0_1047_2667">
<rect width="19.157" height="21.2523" fill="white"/>
</clipPath>
</defs>
</svg>
