<svg width="23" height="25" viewBox="0 0 23 25" fill="none" xmlns="http://www.w3.org/2000/svg">
<path d="M21.5154 11.7556C20.9659 10.8125 20.193 10.0565 19.2268 9.4873C18.5047 9.06794 17.7559 8.80178 16.9122 8.68747V5.69086C17.7559 5.33346 18.2796 4.54239 18.2796 3.6195C18.2796 2.3616 17.2684 1.34224 16.0085 1.34224C14.7476 1.34224 13.7188 2.3616 13.7188 3.6195C13.7188 4.54239 14.2122 5.33346 15.0559 5.69086V8.68882C14.3809 8.78612 13.681 8.99606 13.0417 9.31861C11.7361 8.32939 7.4549 5.08413 4.95047 3.18869C5.00987 2.97506 5.0556 2.75486 5.0556 2.52254C5.0556 1.12928 3.92463 0 2.52755 0C1.13046 0 0 1.12928 0 2.52254C0 3.91579 1.13164 5.04525 2.52873 5.04525C3.00528 5.04525 3.44606 4.90619 3.82642 4.67757L4.35495 5.07757L11.6173 10.2977C11.2334 10.6494 10.8758 11.0494 10.5898 11.4982C10.0101 12.4132 9.65591 13.4199 9.65591 14.5181V14.7472C9.65591 15.5181 9.80273 16.2458 10.0528 16.9295C10.273 17.5265 10.595 18.0692 10.9938 18.56L8.5835 20.9704C8.2342 20.8406 7.85483 20.814 7.49076 20.8937C7.12669 20.9733 6.79332 21.1559 6.53048 21.4195C6.3485 21.6002 6.20426 21.8151 6.10612 22.0518C6.00799 22.2884 5.9579 22.5422 5.95876 22.7983C5.95893 23.319 6.16227 23.8084 6.53149 24.1766C6.71247 24.3583 6.92779 24.5023 7.16497 24.6004C7.40215 24.6985 7.65648 24.7486 7.91323 24.7479C8.17006 24.7487 8.42449 24.6986 8.66176 24.6005C8.89903 24.5024 9.11443 24.3583 9.29547 24.1766C9.47745 23.996 9.62171 23.7812 9.71991 23.5446C9.8181 23.308 9.86828 23.0544 9.86753 22.7983C9.86753 22.5968 9.83631 22.4002 9.77759 22.2133L12.2689 19.7276C12.6104 19.963 12.9793 20.1611 13.3759 20.332C14.158 20.6694 15.0213 20.8749 15.9662 20.8749H16.1393C17.1839 20.8749 18.1692 20.6301 19.0955 20.1295C20.0715 19.6003 20.8355 18.8768 21.4126 17.9531C21.9928 17.0268 22.3122 16.0034 22.3122 14.8775V14.8213C22.3122 13.7137 22.0552 12.6918 21.5154 11.7556ZM18.4714 16.9699C17.7953 17.7196 17.018 18.1813 16.1393 18.1813H15.9945C15.4927 18.1813 15.0018 18.043 14.5212 17.7913C13.9795 17.5142 13.5677 17.1189 13.2307 16.6184C12.8824 16.1271 12.6934 15.5908 12.6934 15.0221V14.8494C12.6934 14.2903 12.8009 13.7602 13.0719 13.2595C13.3617 12.7122 13.753 12.2866 14.2734 11.9482C14.7844 11.6122 15.3302 11.4474 15.938 11.4474H15.9945C16.5457 11.4474 17.0674 11.5558 17.5599 11.8071C18.0616 12.0752 18.4714 12.4413 18.7892 12.923C19.0979 13.4048 19.2815 13.9245 19.3405 14.4906C19.3498 14.6083 19.3545 14.7288 19.3545 14.844C19.3545 15.6123 19.0602 16.3239 18.4714 16.9699Z" fill="#F8761F"/>
</svg>
