<svg width="24" height="24" viewBox="0 0 24 24" fill="none" xmlns="http://www.w3.org/2000/svg">
<g clip-path="url(#clip0_1047_2671)">
<path d="M9.20531 14.8647C9.95396 14.9181 10.5471 15.5337 10.5626 16.2888L10.5629 16.319V22.0453C10.5629 22.8523 9.90463 23.5062 9.09637 23.5062C8.29398 23.5062 7.64381 22.8681 7.62829 22.0745L7.62801 22.0453V18.8421L4.83478 20.4451C4.13436 20.8506 3.23865 20.6107 2.83199 19.9137C2.43241 19.2239 2.66059 18.3423 3.34098 17.9314L3.36808 17.9155L8.35369 15.0553C8.61141 14.9058 8.90872 14.8393 9.20531 14.8647ZM15.1257 15.0357L15.1608 15.0553L20.1454 17.9155C20.8478 18.319 21.0861 19.2148 20.6824 19.9137C20.283 20.6016 19.4042 20.8443 18.7071 20.4606L18.6797 20.4451L15.8884 18.8421V22.0453C15.8884 22.8523 15.2321 23.5062 14.4199 23.5062C13.6175 23.5062 12.9691 22.8681 12.9536 22.0745L12.9533 22.0453V16.319C12.9533 15.5502 13.5506 14.9188 14.311 14.8647C14.5838 14.8415 14.8673 14.8951 15.1258 15.0357M2.17438 7.60886L2.20194 7.62426L7.18378 10.4863C7.53404 10.6872 7.76782 11.0059 7.86648 11.3627C7.89927 11.4776 7.91424 11.5923 7.92003 11.7073C7.9237 11.8659 7.90303 12.0268 7.85325 12.1827C7.74792 12.5232 7.52146 12.8129 7.21704 12.9965L7.18378 13.0161L2.20194 15.88C1.49867 16.2828 0.602042 16.0445 0.198508 15.3477C-0.203005 14.656 0.025263 13.7787 0.707771 13.3673L0.734593 13.3516L3.51845 11.7541L0.734593 10.1523C0.0312338 9.74824 -0.209068 8.85732 0.198416 8.15959C0.596806 7.46998 1.47543 7.22782 2.17438 7.60886ZM23.3181 8.15959C23.7245 8.85723 23.4841 9.74824 22.7811 10.152L19.997 11.7538L22.7811 13.3513C23.4841 13.7558 23.7244 14.647 23.3181 15.3475C22.9123 16.0443 22.015 16.2826 21.3144 15.8799L16.3287 13.016C15.9963 12.8235 15.7655 12.5217 15.663 12.1826C15.6144 12.0291 15.5922 11.8683 15.5973 11.7072C15.6002 11.5907 15.6176 11.4749 15.6489 11.3626C15.7522 10.9923 15.9964 10.6775 16.3287 10.4862L21.3144 7.62417C22.015 7.22145 22.9123 7.46094 23.3181 8.15959ZM12.0616 9.02267C12.146 9.02267 12.2624 9.07025 12.3216 9.13093L14.3937 11.1898C14.4528 11.2486 14.5008 11.3654 14.5008 11.4496V12.0567C14.5008 12.1389 14.4528 12.2556 14.3937 12.3136L12.3216 14.3725C12.2624 14.433 12.1478 14.4826 12.0616 14.4826H11.4522C11.3685 14.4826 11.2521 14.433 11.1919 14.3725L9.12089 12.3136C9.06155 12.2556 9.01369 12.1389 9.01369 12.0567V11.4496C9.01369 11.3654 9.06155 11.2485 9.12089 11.1898L11.1919 9.13093C11.2521 9.07025 11.3685 9.02267 11.4522 9.02267H12.0616ZM11.7683 10.7798H11.7451C11.6615 10.7798 11.5451 10.8285 11.4869 10.8871L10.8869 11.4814C10.8267 11.5429 10.7807 11.6588 10.7807 11.742V11.7652C10.7807 11.8474 10.8267 11.9623 10.8869 12.0222L11.4869 12.6181C11.546 12.6769 11.6614 12.7254 11.745 12.7254H11.7683C11.8521 12.7254 11.9686 12.6769 12.0278 12.6181L12.6277 12.0222C12.6868 11.9623 12.7374 11.8474 12.7374 11.7652V11.742C12.7374 11.6588 12.6868 11.5428 12.6277 11.4814L12.0278 10.8871C11.9686 10.8285 11.8521 10.7798 11.7683 10.7798ZM14.4199 0C15.2223 0 15.8725 0.638429 15.8881 1.42985L15.8884 1.4589V4.66312L18.6797 3.05815C19.3811 2.65479 20.2777 2.894 20.6824 3.59154C20.874 3.92263 20.9279 4.31618 20.8325 4.68691C20.7371 5.05764 20.5 5.37569 20.1726 5.57212L20.1454 5.58808L15.1608 8.45091C14.9031 8.59912 14.6068 8.66551 14.3109 8.64134C13.5606 8.58629 12.969 7.96971 12.9536 7.21546L12.9533 7.18521V1.4589C12.9534 0.654014 13.6079 0 14.4199 0ZM9.09637 0C9.89489 0 10.547 0.638429 10.5626 1.42985L10.5629 1.4589V7.18521C10.5629 7.95311 9.96397 8.58555 9.20522 8.64134C8.92235 8.66443 8.63886 8.60506 8.38878 8.47037L8.35369 8.45091L3.36808 5.58808C2.66665 5.18434 2.42718 4.29231 2.83199 3.59154C3.23342 2.90313 4.11121 2.66106 4.80741 3.04284L4.83478 3.05815L7.62801 4.66312V1.4589C7.62801 0.654014 8.28425 0 9.09637 0Z" fill="#29B5E8"/>
</g>
<defs>
<clipPath id="clip0_1047_2671">
<rect width="23.5618" height="23.4698" fill="white"/>
</clipPath>
</defs>
</svg>
