<svg width="24" height="23" viewBox="0 0 24 23" fill="none" xmlns="http://www.w3.org/2000/svg">
<g clip-path="url(#clip0_1047_2660)">
<path d="M19.6118 0H3.90398C1.74787 0 0 1.71823 0 3.83777V18.7012C0 20.8208 1.74787 22.539 3.90398 22.539H19.6118C21.7679 22.539 23.5157 20.8208 23.5157 18.7012V3.83777C23.5157 1.71823 21.7679 0 19.6118 0Z" fill="#470137"/>
<path d="M12.3613 5.92683L9.42707 10.6877L12.5663 15.7432C12.5865 15.7786 12.5921 15.8201 12.5821 15.8595C12.5773 15.8763 12.5668 15.8805 12.5507 15.8811L12.5329 15.8808L12.5112 15.8803C12.4995 15.8803 12.4863 15.8808 12.4717 15.8832H10.2083L10.1639 15.8825C10.0419 15.8793 9.95397 15.8621 9.90042 15.7742C9.69099 15.3731 9.48063 14.9725 9.26935 14.5724C9.08036 14.2155 8.88621 13.8613 8.68697 13.5098L8.59897 13.355C8.36066 12.9387 8.12666 12.52 7.89699 12.099H7.88119C7.66909 12.5156 7.45085 12.9291 7.22651 13.3395C7.00024 13.7531 6.77674 14.164 6.55604 14.5724C6.33517 14.9809 6.10906 15.3868 5.87776 15.7897C5.84055 15.8719 5.77873 15.889 5.69266 15.8918L5.65684 15.8924H3.49569L3.48632 15.8927L3.45545 15.8954C3.43827 15.8964 3.42799 15.8927 3.42468 15.8673C3.4188 15.8295 3.42723 15.7908 3.44838 15.7587L6.49293 10.8428L3.52719 5.91148C3.49572 5.8703 3.49045 5.83671 3.51139 5.8107C3.52304 5.79745 3.53765 5.78705 3.55409 5.78031C3.57053 5.77357 3.58833 5.77068 3.6061 5.77187H5.83036C5.87886 5.76929 5.92735 5.77725 5.97237 5.79517C6.01003 5.81621 6.04246 5.84538 6.06698 5.8805C6.25627 6.29408 6.46663 6.7076 6.69805 7.12105C6.92765 7.53184 7.16166 7.94023 7.40003 8.34616C7.63476 8.7458 7.85316 9.15449 8.05471 9.57126H8.07051C8.27706 9.15459 8.49005 8.74103 8.70938 8.33072C8.92482 7.92749 9.14565 7.52168 9.37186 7.11329C9.59515 6.71018 9.81339 6.3044 10.0265 5.89604C10.0387 5.85775 10.0603 5.82307 10.0896 5.79517C10.1286 5.77576 10.1724 5.76768 10.2159 5.77187H12.2824C12.3014 5.76722 12.3214 5.76875 12.3395 5.77625C12.3575 5.78374 12.3726 5.79679 12.3824 5.81343C12.3922 5.83007 12.3963 5.8494 12.394 5.86852C12.3917 5.88763 12.3832 5.9055 12.3697 5.91942L12.3613 5.92683ZM16.9974 16.0832L16.8886 16.0844C16.1625 16.0953 15.4431 15.9469 14.7826 15.6502C14.1673 15.3703 13.653 14.9133 13.3076 14.3398C12.9594 13.7712 12.7807 13.0628 12.7716 12.2145L12.7713 12.1455C12.7653 11.4337 12.9504 10.733 13.3077 10.114C13.6653 9.50127 14.1867 8.99644 14.8153 8.65417L14.8694 8.62528C15.5528 8.25306 16.3784 8.06695 17.3461 8.06695L17.3883 8.0674L17.4367 8.06893L17.4909 8.07128L17.5511 8.07471L17.6523 8.08176L17.767 8.09079L17.8508 8.09801V5.04297C17.8508 4.97067 17.8824 4.93449 17.9455 4.93443H19.9332C19.946 4.93261 19.9591 4.93377 19.9715 4.9378C19.9838 4.94184 19.995 4.94864 20.0042 4.95766C20.0133 4.96669 20.0203 4.97769 20.0244 4.9898C20.0285 5.00192 20.0296 5.0148 20.0278 5.02744V14.1925C20.0278 14.3464 20.0339 14.5121 20.046 14.6895L20.0754 15.0918L20.091 15.3245C20.0929 15.3567 20.0849 15.3888 20.068 15.4164C20.0511 15.4441 20.0261 15.4661 19.9963 15.4796C19.4835 15.6898 18.9494 15.8457 18.403 15.9448C17.9392 16.029 17.469 16.0753 16.9974 16.0832ZM17.8508 14.1614V9.92786C17.7656 9.90515 17.6785 9.88959 17.5906 9.88135C17.4831 9.87068 17.3752 9.8655 17.2672 9.86582C16.8844 9.86203 16.5061 9.94705 16.163 10.114C15.8288 10.2774 15.5434 10.5232 15.3348 10.8273C15.1265 11.1268 15.0188 11.5178 15.0117 12.0003L15.0113 12.0524C15.0037 12.3905 15.0598 12.727 15.1769 13.0449C15.2723 13.301 15.4231 13.5338 15.6188 13.7273C15.8061 13.9052 16.0329 14.0379 16.2813 14.1149C16.5436 14.1984 16.8179 14.2403 17.0937 14.2391C17.2408 14.2391 17.3775 14.2339 17.5038 14.2235C17.6045 14.216 17.7044 14.1997 17.8022 14.1747L17.8508 14.1614Z" fill="#FF61F6"/>
</g>
<defs>
<clipPath id="clip0_1047_2660">
<rect width="23.3163" height="22.7698" fill="white"/>
</clipPath>
</defs>
</svg>
