<svg width="42" height="18" viewBox="0 0 42 18" fill="none" xmlns="http://www.w3.org/2000/svg">
<g clip-path="url(#clip0_1051_2752)">
<path d="M18.8754 14.22C18.553 14.22 18.2264 14.154 17.9124 14.018L11.2134 11.0782C10.016 10.5546 9.47592 9.16514 10.0077 7.98594L12.9928 1.38906C13.5246 0.209769 14.9356 -0.322073 16.1331 0.201558L22.8321 3.14132C24.0295 3.66495 24.5696 5.05439 24.0378 6.23359L21.0527 12.8305C20.6549 13.7046 19.784 14.22 18.8755 14.22M18.4693 12.781C18.9759 13.0036 19.5705 12.777 19.7965 12.2821L22.7818 5.68525C23.0079 5.18633 22.7777 4.60092 22.2751 4.37824L15.5721 1.43856C15.0654 1.21581 14.4709 1.44263 14.2448 1.9374L11.2596 8.53428C11.0335 9.0332 11.2637 9.61862 11.7661 9.84129L18.4693 12.781Z" fill="#089949"/>
<path d="M39.8888 14.2277H32.5534C31.243 14.2277 30.1753 13.1763 30.1753 11.8858V4.66222C30.1753 3.37164 31.243 2.32031 32.5534 2.32031H39.8888C41.1993 2.32031 42.2669 3.37164 42.2669 4.66222V11.8858C42.2669 13.1763 41.1993 14.2277 39.8888 14.2277ZM32.5534 3.67268C32.0008 3.67268 31.5486 4.11794 31.5486 4.66222V11.8858C31.5486 12.43 32.0008 12.8754 32.5534 12.8754H39.8888C40.4415 12.8754 40.8936 12.43 40.8936 11.8858V4.66222C40.8936 4.11794 40.4415 3.67268 39.8888 3.67268H32.5534Z" fill="#F9B21D"/>
<path d="M12.4197 5.98423L11.4316 8.16118C11.4191 8.1859 11.4065 8.20655 11.394 8.22712L11.7792 10.569C11.8671 11.1092 11.4944 11.6163 10.9502 11.7029L3.70685 12.8573C3.44364 12.8987 3.17447 12.8365 2.95742 12.6841C2.73972 12.5316 2.5974 12.3007 2.55546 12.041L1.38319 4.90803C1.34117 4.64883 1.40433 4.38376 1.55903 4.17002C1.7139 3.95564 1.94844 3.81548 2.2122 3.77426L9.45543 2.61977C9.50992 2.61156 9.56432 2.60742 9.61452 2.60742C10.0961 2.60742 10.5272 2.95374 10.6068 3.4403L10.9962 5.79871L12.0178 3.5433L11.9634 3.22584C11.7541 1.95184 10.5314 1.08189 9.23782 1.28806L1.99451 2.44247C1.68648 2.48872 1.39102 2.59539 1.12563 2.75617C0.860235 2.91694 0.630319 3.12854 0.449501 3.37843C0.0768512 3.88556 -0.0696828 4.50398 0.0308684 5.12249L1.20314 12.2554C1.30361 12.8739 1.64274 13.4139 2.15772 13.7809C2.56388 14.0736 3.04534 14.2221 3.54364 14.2221C3.6692 14.2221 3.79898 14.2138 3.92875 14.1932L11.1721 13.0388C12.4658 12.8326 13.3492 11.6286 13.1398 10.3546L12.4197 5.98423Z" fill="#E42527"/>
<path d="M21.1068 9.39244L22.1702 7.04647L21.8688 4.86528C21.831 4.60562 21.9023 4.3458 22.0656 4.13557C22.2289 3.92533 22.4633 3.78924 22.7312 3.75624L29.9996 2.78312C30.0457 2.77905 30.0918 2.77499 30.1378 2.77499C30.3555 2.77499 30.5649 2.84507 30.7449 2.97701C30.7784 3.00172 30.8077 3.03058 30.837 3.0553C31.1657 2.71552 31.59 2.48009 32.0554 2.37916C31.9201 2.19571 31.7578 2.03312 31.5739 1.89674C31.0673 1.51741 30.4434 1.35661 29.8155 1.43904L22.5387 2.41216C21.9106 2.4946 21.3496 2.81621 20.9685 3.31504C20.5834 3.81396 20.4201 4.42831 20.5038 5.04674L21.1068 9.39244ZM33.4748 10.6005L32.5201 3.6738C31.9842 3.69031 31.553 4.12727 31.553 4.65911V6.69185L32.1182 10.7819C32.1559 11.0417 32.0847 11.3014 31.9214 11.5117C31.7581 11.722 31.5237 11.858 31.2557 11.891L23.9873 12.8641C23.7235 12.9012 23.4598 12.8311 23.2463 12.6703C23.0328 12.5095 22.8946 12.2786 22.8611 12.0147L22.5261 9.58625L21.4626 11.9322L21.5003 12.1961C21.584 12.8146 21.9106 13.3671 22.4173 13.7423C22.8359 14.0556 23.3342 14.2206 23.8533 14.2206C23.9623 14.2206 24.0711 14.2123 24.1799 14.1999L31.4399 13.2352C32.0679 13.1527 32.629 12.8311 33.0101 12.3322C33.3952 11.8333 33.5585 11.2189 33.4748 10.6005Z" fill="#226DB4"/>
<path d="M12.9682 17.6553L14.0066 16.1463H13.1525C13.1303 16.1463 13.109 16.1376 13.0933 16.1221C13.0776 16.1066 13.0687 16.0857 13.0687 16.0638V15.8618C13.0687 15.8164 13.1064 15.7793 13.1525 15.7793H14.5551C14.6011 15.7793 14.6388 15.8164 14.6388 15.8618V15.9401C14.6388 15.9566 14.6347 15.9732 14.6263 15.9855L13.6089 17.4945H14.5216C14.5676 17.4945 14.6053 17.5316 14.6053 17.577V17.779C14.6053 17.8244 14.5676 17.8615 14.5216 17.8615H13.0394C13.0172 17.8614 12.9959 17.8527 12.9802 17.8373C12.9646 17.8218 12.9557 17.8008 12.9557 17.779V17.7048C12.9516 17.6842 12.9598 17.6676 12.9682 17.6553ZM17.3393 16.806C17.3393 16.1876 17.7999 15.7423 18.4279 15.7423C19.0768 15.7423 19.5164 16.1793 19.5164 16.8102C19.5164 17.4493 19.0685 17.8904 18.4195 17.8904C17.7664 17.8904 17.3393 17.4493 17.3393 16.806ZM19.0182 16.8143C19.0182 16.4391 18.834 16.1175 18.4195 16.1175C18.0008 16.1175 17.8417 16.4515 17.8417 16.8308C17.8417 17.1895 18.0386 17.5194 18.4404 17.5194C18.8549 17.5152 19.0182 17.1648 19.0182 16.8143ZM22.4934 15.7754H22.8033C22.8493 15.7754 22.887 15.8124 22.887 15.8577V16.6247H23.7662V15.8577C23.7662 15.8124 23.8039 15.7753 23.85 15.7753H24.1598C24.2059 15.7753 24.2435 15.8124 24.2435 15.8577V17.775C24.2435 17.8203 24.2059 17.8574 24.1598 17.8574H23.8542C23.832 17.8574 23.8107 17.8487 23.795 17.8333C23.7793 17.8178 23.7705 17.7969 23.7704 17.775V16.9998H22.8912V17.775C22.8912 17.8203 22.8535 17.8574 22.8074 17.8574H22.4976C22.4754 17.8574 22.4541 17.8487 22.4384 17.8332C22.4228 17.8178 22.4139 17.7968 22.4139 17.775V15.8577C22.4097 15.8124 22.4474 15.7754 22.4934 15.7754ZM27.1366 16.806C27.1366 16.1875 27.5972 15.7422 28.2252 15.7422C28.8741 15.7422 29.3138 16.1792 29.3138 16.8101C29.3138 17.4492 28.8658 17.8904 28.2168 17.8904C27.5637 17.8904 27.1366 17.4492 27.1366 16.806ZM28.8114 16.8142C28.8114 16.439 28.6271 16.1175 28.2126 16.1175C27.794 16.1175 27.6348 16.4514 27.6348 16.8307C27.6348 17.1894 27.8316 17.5193 28.2336 17.5193C28.648 17.5151 28.8114 17.1647 28.8114 16.8142Z" fill="#E4E4E7"/>
</g>
<defs>
<clipPath id="clip0_1051_2752">
<rect width="42" height="18" fill="white"/>
</clipPath>
</defs>
</svg>
