<svg width="20" height="19" viewBox="0 0 20 19" fill="none" xmlns="http://www.w3.org/2000/svg">
<g clip-path="url(#clip0_1047_2717)">
<path d="M13.7784 7.03125H18.8807C19.3628 7.03125 19.7536 7.42993 19.7536 7.92166V12.6627C19.7536 14.4699 18.3174 15.9351 16.5457 15.9351H16.5305C14.7589 15.9354 13.3225 14.4705 13.3223 12.6631V7.49668C13.3222 7.43556 13.334 7.37503 13.3569 7.31855C13.3798 7.26207 13.4134 7.21076 13.4558 7.16753C13.4982 7.12431 13.5485 7.09002 13.6038 7.06664C13.6592 7.04325 13.7185 7.03123 13.7784 7.03125Z" fill="#5059C9"/>
<path d="M17.2264 6.09264C18.3681 6.09264 19.2936 5.14849 19.2936 3.98382C19.2936 2.81915 18.3681 1.875 17.2264 1.875C16.0847 1.875 15.1592 2.81915 15.1592 3.98382C15.1592 5.14849 16.0847 6.09264 17.2264 6.09264Z" fill="#5059C9"/>
<path d="M10.7965 6.09213C12.4456 6.09213 13.7825 4.72836 13.7825 3.04607C13.7825 1.36377 12.4456 0 10.7965 0C9.14741 0 7.81055 1.36377 7.81055 3.04607C7.81055 4.72836 9.14741 6.09213 10.7965 6.09213Z" fill="#7B83EB"/>
<path d="M14.7764 7.03125H6.35423C5.87792 7.04329 5.50114 7.44654 5.51217 7.93244V13.3398C5.44566 16.2557 7.70702 18.6755 10.5653 18.7468C13.4236 18.6755 15.6849 16.2557 15.6185 13.3398V7.93244C15.6295 7.44654 15.2527 7.04329 14.7764 7.03125Z" fill="#7B83EB"/>
<path opacity="0.1" d="M11.0255 7.03125V14.6089C11.0244 14.7788 10.9742 14.9447 10.881 15.0856C10.7878 15.2265 10.6559 15.3362 10.5019 15.4009C10.4015 15.4442 10.2938 15.4665 10.1849 15.4665H5.91718C5.85746 15.3118 5.80236 15.1571 5.75637 14.9979C5.59556 14.4601 5.51353 13.9011 5.51293 13.3389V7.93103C5.5019 7.44591 5.87806 7.04329 6.3536 7.03133L11.0255 7.03125Z" fill="black"/>
<path opacity="0.2" d="M10.566 7.03125V15.0775C10.566 15.1886 10.5441 15.2986 10.5017 15.4009C10.4383 15.558 10.3307 15.6926 10.1926 15.7876C10.0545 15.8827 9.89191 15.934 9.72531 15.9351H6.13308C6.05499 15.7804 5.98145 15.6258 5.91718 15.4665C5.85543 15.3133 5.80175 15.1569 5.75637 14.9979C5.59556 14.4601 5.51353 13.9011 5.51293 13.3389V7.93103C5.5019 7.44591 5.87806 7.04329 6.3536 7.03133L10.566 7.03125Z" fill="black"/>
<path opacity="0.2" d="M10.5661 7.03125V14.1403C10.5626 14.6124 10.1883 14.9943 9.72538 14.9979H5.75637C5.59556 14.4601 5.51353 13.9011 5.51293 13.3389V7.93103C5.5019 7.44591 5.87806 7.04329 6.3536 7.03133L10.5661 7.03125Z" fill="black"/>
<path opacity="0.2" d="M10.1067 7.03125V14.1403C10.1032 14.6124 9.72886 14.9943 9.26604 14.9979H5.75637C5.59556 14.4601 5.51353 13.9011 5.51293 13.3389V7.93103C5.5019 7.44591 5.87806 7.04329 6.3536 7.03133L10.1067 7.03125Z" fill="black"/>
<path opacity="0.1" d="M11.0246 4.60759V6.08371C10.9465 6.08843 10.8729 6.09315 10.7949 6.09315C10.7168 6.09315 10.6432 6.08843 10.5652 6.08371C10.4101 6.07321 10.2563 6.04812 10.1058 6.00877C9.64721 5.89797 9.22083 5.67801 8.86154 5.36688C8.50225 5.05575 8.22024 4.66229 8.03859 4.21866C7.97517 4.06754 7.92595 3.91061 7.8916 3.75H10.1839C10.6474 3.75181 11.0228 4.13467 11.0246 4.60759Z" fill="black"/>
<path opacity="0.2" d="M10.5655 5.07626V6.08379C10.4105 6.0733 10.2567 6.04821 10.1062 6.00886C9.64762 5.89805 9.22125 5.67808 8.86197 5.36695C8.50269 5.05583 8.2207 4.66237 8.03906 4.21875H9.72488C10.1885 4.22048 10.5638 4.60342 10.5655 5.07626Z" fill="black"/>
<path opacity="0.2" d="M10.5655 5.07626V6.08379C10.4105 6.0733 10.2567 6.04821 10.1062 6.00886C9.64762 5.89805 9.22125 5.67808 8.86197 5.36695C8.50269 5.05583 8.2207 4.66237 8.03906 4.21875H9.72488C10.1885 4.22048 10.5638 4.60342 10.5655 5.07626Z" fill="black"/>
<path opacity="0.2" d="M10.1063 5.07634V6.00894C9.64767 5.89813 9.22129 5.67816 8.86199 5.36702C8.5027 5.05587 8.2207 4.66239 8.03906 4.21875H9.26561C9.7292 4.22056 10.1045 4.6035 10.1063 5.07634Z" fill="black"/>
<path d="M0.842058 4.21883H9.26418C9.72931 4.21883 10.1063 4.60342 10.1063 5.07783V13.6695C10.1063 14.1439 9.72931 14.5285 9.26426 14.5285H0.842058C0.377009 14.5285 0 14.1439 0 13.6695V5.07791C0 4.60335 0.377009 4.21883 0.842058 4.21883Z" fill="url(#paint0_linear_1047_2717)"/>
<path d="M7.26994 7.48929H5.58629V12.1661H4.51367V7.48929H2.83789V6.58203H7.26994V7.48929Z" fill="white"/>
</g>
<defs>
<linearGradient id="paint0_linear_1047_2717" x1="175.567" y1="-62.8979" x2="854.977" y2="1090.58" gradientUnits="userSpaceOnUse">
<stop stop-color="#5A62C3"/>
<stop offset="0.5" stop-color="#4D55BD"/>
<stop offset="1" stop-color="#3940AB"/>
</linearGradient>
<clipPath id="clip0_1047_2717">
<rect width="19.952" height="18.627" fill="white"/>
</clipPath>
</defs>
</svg>
