<svg width="20" height="20" viewBox="0 0 20 20" fill="none" xmlns="http://www.w3.org/2000/svg">
<g clip-path="url(#clip0_1047_2733)">
<path d="M4.20648 12.4575C4.20648 13.5886 3.28394 14.5126 2.15261 14.5126C1.02127 14.5126 0.0976562 13.5886 0.0976562 12.4575C0.0976562 11.3263 1.02158 10.4023 2.15276 10.4023H4.20663L4.20648 12.4575ZM5.24183 12.4575C5.24183 11.3263 6.16575 10.4023 7.29693 10.4023C8.42811 10.4023 9.35204 11.3261 9.35204 12.4575V17.6018C9.35204 18.733 8.42827 19.6569 7.29693 19.6569C6.16575 19.6569 5.24183 18.733 5.24183 17.6018V12.4575Z" fill="#DE1C59"/>
<path d="M7.29693 4.20648C6.16575 4.20648 5.24183 3.28394 5.24183 2.15261C5.24183 1.02127 6.16575 0.0976562 7.29693 0.0976562C8.42811 0.0976562 9.35204 1.02158 9.35204 2.15276V4.20663L7.29693 4.20648ZM7.29693 5.24183C8.42811 5.24183 9.35204 6.16575 9.35204 7.29693C9.35204 8.42811 8.42827 9.35204 7.29693 9.35204H2.15261C1.02143 9.35204 0.0976562 8.42827 0.0976562 7.29693C0.0976562 6.16575 1.02158 5.24183 2.15276 5.24183H7.29693Z" fill="#35C5F0"/>
<path d="M15.5479 7.29693C15.5479 6.16575 16.4704 5.24183 17.6018 5.24183C18.7331 5.24183 19.6569 6.16575 19.6569 7.29693C19.6569 8.42811 18.733 9.35204 17.6018 9.35204H15.5479V7.29693ZM14.5126 7.29693C14.5126 8.42811 13.5886 9.35204 12.4575 9.35204C11.3263 9.35204 10.4023 8.42827 10.4023 7.29693V2.15261C10.4023 1.02143 11.3261 0.0976562 12.4575 0.0976562C13.5886 0.0976562 14.5126 1.02158 14.5126 2.15276V7.29693Z" fill="#2EB57D"/>
<path d="M12.4575 15.5479C13.5886 15.5479 14.5126 16.4704 14.5126 17.6018C14.5126 18.7331 13.5886 19.6569 12.4575 19.6569C11.3263 19.6569 10.4023 18.733 10.4023 17.6018V15.5479H12.4575ZM12.4575 14.5126C11.3263 14.5126 10.4023 13.5886 10.4023 12.4575C10.4023 11.3263 11.3261 10.4023 12.4575 10.4023H17.6018C18.733 10.4023 19.6569 11.3261 19.6569 12.4575C19.6569 13.5886 18.733 14.5126 17.6018 14.5126H12.4575Z" fill="#EBB02E"/>
</g>
<defs>
<clipPath id="clip0_1047_2733">
<rect width="19.7532" height="19.7532" fill="white"/>
</clipPath>
</defs>
</svg>
