<svg width="23" height="23" viewBox="0 0 23 23" fill="none" xmlns="http://www.w3.org/2000/svg">
<path d="M20.8335 9.22752L20.8074 9.15344L18.1188 1.87156C18.0661 1.72965 17.9692 1.60845 17.8423 1.52588C17.7639 1.47393 17.6759 1.43842 17.5834 1.4215C17.4909 1.40458 17.396 1.4066 17.3043 1.42745C17.2126 1.44829 17.1261 1.48751 17.05 1.54275C16.974 1.59799 16.9099 1.66809 16.8617 1.74881C16.8231 1.80986 16.794 1.87648 16.7756 1.94634L14.9612 7.05255H7.61296L5.79848 1.94634C5.77535 1.85453 5.73404 1.76829 5.677 1.69272C5.61996 1.61715 5.54835 1.55378 5.4664 1.50636C5.38446 1.45894 5.29383 1.42843 5.19989 1.41664C5.10595 1.40484 5.01059 1.412 4.91946 1.4377C4.85295 1.45747 4.78972 1.48694 4.73181 1.52517C4.60481 1.60793 4.50784 1.72939 4.45526 1.87156L1.76812 9.15485L1.7399 9.22752C1.351 10.2733 1.30174 11.4151 1.59913 12.4906C1.89651 13.566 2.5254 14.5203 3.39635 15.2177L3.40693 15.2261L3.42951 15.2445L7.51913 18.4269L9.54807 20.0191L10.7805 20.987C10.9234 21.1003 11.1004 21.162 11.2828 21.162C11.4652 21.162 11.6422 21.1003 11.7851 20.987L13.0176 20.0191L15.0465 18.4269L19.1651 15.2261L19.1763 15.217C20.0474 14.5198 20.6765 13.5657 20.9741 12.4904C21.2717 11.4151 21.2228 10.2734 20.8342 9.22752H20.8335Z" fill="#E53935"/>
<path d="M20.8339 9.23032L20.8078 9.15625C19.4907 9.43812 18.2549 10.0156 17.1937 10.8452L11.291 15.4801L15.0491 18.4297L19.1683 15.229L19.1796 15.2198C20.05 14.5221 20.6784 13.5679 20.9754 12.4926C21.2724 11.4173 21.2229 10.2758 20.8339 9.23032Z" fill="#EF6C00"/>
<path d="M7.51953 18.4254L9.54847 20.0177L10.7809 20.9856C10.9238 21.0989 11.1009 21.1606 11.2832 21.1606C11.4656 21.1606 11.6426 21.0989 11.7855 20.9856L13.018 20.0177L15.0469 18.4254L11.2875 15.4766L7.51953 18.4254Z" fill="#F9A825"/>
<path d="M5.38128 10.8423C4.32044 10.0141 3.08538 9.43759 1.76926 9.15625L1.74104 9.22821C1.35206 10.2739 1.30269 11.4157 1.59995 12.4911C1.8972 13.5665 2.52595 14.5209 3.39678 15.2184L3.40736 15.2268L3.42994 15.2452L7.51956 18.4276L11.2804 15.4787L5.38128 10.8423Z" fill="#EF6C00"/>
</svg>
