<svg width="31" height="31" viewBox="0 0 31 31" fill="none" xmlns="http://www.w3.org/2000/svg">
<path d="M23.5479 8.18028C22.6671 8.18028 21.8988 8.43614 21.1448 8.6807C20.264 7.20454 18.615 6.22754 16.8405 6.22754C15.4566 6.22754 14.1981 6.83832 13.3044 7.69241C12.2969 6.4721 10.7746 5.60547 9.01304 5.60547C6.08098 5.60547 3.5641 7.93572 3.5641 10.7802C3.5641 11.5001 3.82794 12.2313 4.08015 12.9637C3.35513 13.3491 2.74977 13.9158 2.32696 14.6048C1.90414 15.2938 1.6793 16.08 1.67578 16.8817C1.67578 19.3224 3.70248 21.4218 6.23231 21.4218C6.60997 21.4218 6.98634 21.4218 7.23855 21.2989C7.74296 23.1413 9.64162 24.4971 11.9205 24.4971C14.0598 24.4971 15.8343 23.263 16.4628 21.5422C17.1043 21.7993 17.7342 22.0439 18.3641 22.0439C20.0118 22.0439 21.5225 21.1534 22.2765 19.8341C22.6671 19.9319 23.0693 19.9319 23.4224 19.9319C26.7076 19.9319 29.3616 17.3809 29.3616 14.0749C29.4883 10.7802 26.8447 8.18028 23.5479 8.18028Z" fill="#039BE5"/>
</svg>
