<svg width="32" height="32" viewBox="0 0 32 32" fill="none" xmlns="http://www.w3.org/2000/svg">
<path d="M26.1974 3.87891H14.9893C14.9893 6.67258 17.2504 8.93467 20.0448 8.93467H22.1061V10.9295C22.1061 13.7232 24.3682 15.9853 27.1618 15.9853V4.84335C27.1617 4.58762 27.06 4.34243 26.8792 4.1616C26.6983 3.98077 26.4531 3.8791 26.1974 3.87891Z" fill="#2684FF"/>
<path d="M20.643 9.46899H9.43457C9.43457 12.2624 11.6959 14.5245 14.4894 14.5245H16.5516V16.5194C16.5516 19.313 18.8137 21.5751 21.6074 21.5751V10.4332C21.607 10.1775 21.5053 9.93244 21.3245 9.75165C21.1437 9.57087 20.8986 9.46938 20.643 9.46899Z" fill="url(#paint0_linear_1047_2712)"/>
<path d="M15.0892 15.0508H3.88086C3.88086 17.8454 6.14199 20.1065 8.93663 20.1065H10.9979V22.1024C10.9979 24.896 13.26 27.1572 16.0535 27.1572V16.0162C16.0532 15.7605 15.9516 15.5153 15.7708 15.3343C15.5901 15.1534 15.345 15.0513 15.0892 15.0508Z" fill="url(#paint1_linear_1047_2712)"/>
<defs>
<linearGradient id="paint0_linear_1047_2712" x1="21.3741" y1="9.4816" x2="16.6055" y2="14.3987" gradientUnits="userSpaceOnUse">
<stop offset="0.176" stop-color="#0052CC"/>
<stop offset="1" stop-color="#2684FF"/>
</linearGradient>
<linearGradient id="paint1_linear_1047_2712" x1="16.1429" y1="15.0939" x2="10.6293" y2="20.4582" gradientUnits="userSpaceOnUse">
<stop offset="0.176" stop-color="#0052CC"/>
<stop offset="1" stop-color="#2684FF"/>
</linearGradient>
</defs>
</svg>
