<svg width="25" height="25" viewBox="0 0 25 25" fill="none" xmlns="http://www.w3.org/2000/svg">
<path d="M12.1558 2.02734C10.8255 2.02734 9.50836 2.28935 8.27941 2.7984C7.05045 3.30745 5.9338 4.05357 4.9932 4.99417C3.09357 6.8938 2.02637 9.47025 2.02637 12.1567C2.02637 16.6339 4.9335 20.4324 8.95487 21.7796C9.46134 21.8607 9.62341 21.5467 9.62341 21.2732V19.5613C6.81757 20.1691 6.21993 18.204 6.21993 18.204C5.75398 17.029 5.09557 16.715 5.09557 16.715C4.1738 16.0869 5.16648 16.1072 5.16648 16.1072C6.17942 16.1781 6.71627 17.1505 6.71627 17.1505C7.59753 18.6902 9.08655 18.2344 9.66393 17.9913C9.75509 17.3328 10.0185 16.8872 10.3021 16.6339C8.05335 16.3807 5.69321 15.5096 5.69321 11.6503C5.69321 10.5259 6.07812 9.62438 6.73653 8.9052C6.63524 8.65196 6.28071 7.59851 6.83783 6.23104C6.83783 6.23104 7.68869 5.95755 9.62341 7.26424C10.4236 7.04139 11.2948 6.92997 12.1558 6.92997C13.0168 6.92997 13.8879 7.04139 14.6881 7.26424C16.6228 5.95755 17.4737 6.23104 17.4737 6.23104C18.0308 7.59851 17.6763 8.65196 17.575 8.9052C18.2334 9.62438 18.6183 10.5259 18.6183 11.6503C18.6183 15.5197 16.248 16.3706 13.9892 16.6238C14.3538 16.9378 14.6881 17.5557 14.6881 18.4977V21.2732C14.6881 21.5467 14.8502 21.8708 15.3668 21.7796C19.3881 20.4223 22.2851 16.6339 22.2851 12.1567C22.2851 10.8265 22.0231 9.50934 21.5141 8.28038C21.005 7.05143 20.2589 5.93477 19.3183 4.99417C18.3777 4.05357 17.2611 3.30745 16.0321 2.7984C14.8032 2.28935 13.486 2.02734 12.1558 2.02734Z" fill="#71767C"/>
</svg>
