<svg width="22" height="22" viewBox="0 0 22 22" fill="none" xmlns="http://www.w3.org/2000/svg">
<g clip-path="url(#clip0_1047_2676)">
<path d="M6.27302 8.99637H9.02191C8.33491 8.56688 8.0783 7.96542 7.73345 6.84984L6.7016 3.02679C6.2298 1.30884 5.84353 0.492188 3.95271 0.492188H0.00360156V1.52313H0.562744C1.72065 1.52313 1.8512 1.95262 2.19605 3.24108L3.09734 6.59233C3.56915 8.22564 4.30116 8.99637 6.27572 8.99637H6.27302ZM12.6298 8.99637H15.3787C17.3541 8.99637 18.0402 8.22203 18.5156 6.59233L19.4169 3.24108C19.7609 1.95262 19.9301 1.52313 21.0502 1.52313H21.6094V0.492188H17.7017C15.7694 0.492188 15.3823 1.26652 14.9528 3.02679L13.9218 6.84984C13.5761 8.00774 13.3159 8.56688 12.6298 8.99637ZM9.02191 12.6051H12.6298V8.99637H9.02191V12.6051ZM0 21.1093H3.95271C5.84353 21.1093 6.2298 20.2927 6.7016 18.5747L7.73345 14.7517C8.0783 13.6361 8.33491 13.0346 9.02191 12.6051H6.27302C4.29756 12.6051 3.56554 13.3795 3.09374 15.0092L2.19245 18.3604C1.8476 19.6489 1.72065 20.0775 0.559142 20.0775H0V21.1093ZM17.6927 21.1093H21.6031V20.0775H21.043C19.9274 20.0775 19.7546 19.6489 19.4097 18.3604L18.5084 15.0092C18.0366 13.3759 17.3505 12.6051 15.3724 12.6051H12.6298C13.3159 13.0346 13.5671 13.5938 13.9119 14.7517L14.9429 18.5747C15.3724 20.335 15.7595 21.1093 17.6927 21.1093Z" fill="#71767C"/>
</g>
<defs>
<clipPath id="clip0_1047_2676">
<rect width="21.6094" height="21.6094" fill="white"/>
</clipPath>
</defs>
</svg>
